Patient4_TMGait_0pt5_01_right_37_EMG.mot
version=1
nRows=40
nColumns=33
inDegrees=no
endheader
time	1LAddLong	2LGlutMax	3LGlutMed	4LIliopsoas	5LSemiMemb	6LBicFemLong	7LRecFem	8LVastMed	9LVastLat	10LGasMed	11LTibAnt	12lTibPost	13LPeroneusLong	14LSol	15LExtDigLong	16LFlexDigLong	17RAddLong	18RGlutMax	19RGlutMed	20RIliopsoas	21RSemiMemb	22RBicFemLong	23RRecFem	24RVastMed	25RVastLat	26RGasMed	27RTibAnt	28RTibPost	29RPeroneusLong	30RSol	31RExtDigLong	32RFlexDigLong
50.043	0.016937	0.061493	0.033569	-0.005493	0.016479	-0.014496	0.074005	0.015411	0.062256	0.037537	-0.09964	0.01709	-0.063324	-0.087585	0.20905	0.000305	0.16098	-0.044861	0.093842	0.080414	-0.082397	-0.16312	0.18097	-0.06424	0.021057	0.060577	0.003204	-0.002136	-0.39017	0.028839	-0.002747	-0.009003
50.044	-0.012817	0.041504	-0.02182	0.026245	0.023193	-0.014801	0.10269	0.013428	-0.066071	0.060577	-0.10162	0.01236	-0.13779	-0.090485	0.25482	-0.002136	0.15076	-0.007019	0.15503	0.040741	-0.073395	0.00946	0.16892	-0.064697	-0.000916	0.091858	-0.11414	-0.010376	-0.34622	0.009918	-0.002441	-0.009308
50.045	0.012207	0.036011	-0.23712	0.027618	0.014954	-0.027618	0.089417	-0.00946	-0.11139	0.021057	-0.074615	0.013428	-0.20645	-0.032349	0.20599	0.005341	0.14343	0.005035	0.17624	0.009766	-0.030975	0.19714	0.14221	-0.067596	-0.002289	0.056152	-0.11627	-0.008698	-0.14389	0.017395	-0.001221	-0.007477
50.046	0.010071	0.001221	-0.18234	0.009918	0.01297	-0.001526	0.059509	-0.005646	-0.11643	-0.045471	-0.036316	0.015869	-0.18158	-0.037079	-0.005188	-0.005341	0.056763	-0.052795	0.16357	-0.027313	0.001678	0.054474	0.1207	-0.053558	-0.016632	0.033112	-0.11551	-0.00412	-0.014191	0.02533	0.003357	-0.009308
50.047	0.006561	0.036316	-0.054626	0.010071	0.015564	0.010376	-0.012054	-0.014801	-0.041046	-0.060883	-0.005035	0.016479	0.066528	0.009613	-0.15839	-0.002594	-0.018158	-0.089569	-0.21332	0.011139	-0.037079	-0.034943	0.097351	-0.032501	-0.010834	0.02243	-0.040894	0.005798	0.036469	0.02182	-0.002899	-0.00885
50.048	0.005951	0.054169	0.17914	-0.001068	0.01236	0.007935	-0.11551	-0.001373	0.088959	-0.00885	0.005493	0.013733	0.09201	-0.037079	-0.1355	-0.002289	-0.039215	0.007782	-0.12772	-0.020447	-0.177	-0.06485	0.086517	-0.072021	-0.014954	0.019836	0.003052	0.008698	0.009613	0.001831	-0.001984	-0.011597
50.049	0.005035	0.047455	0.19455	0.005035	0.018158	0.000153	-0.035248	-0.010834	0.23377	0.012512	0.012817	0.018463	0.018158	0.027161	-0.028076	-0.007782	-0.075989	-0.032654	-0.052338	-0.084534	-0.33905	-0.020905	0.019684	0.02243	-0.016022	0.022736	0.24994	0.002899	0.020294	-0.024414	-0.002441	-0.010223
50.05	0.003204	0.054016	0.15595	0.004578	0.017395	0.036163	0.10773	-0.015259	0.2214	0.042114	0.027313	0.015259	-0.10269	-0.069885	0.32577	-0.000305	-0.088959	-0.037079	-0.005341	-0.10117	-0.38238	0.071411	-0.010223	-0.008545	-0.00473	0.01358	0.28473	0.000916	-0.04303	-0.029297	-0.006409	-0.010834
50.051	-0.000763	0.039978	0.12238	0.019073	0.014038	0.041046	0.15488	-0.009918	0.1535	0.039215	-0.009918	0.014343	-0.15701	-0.1593	-0.055237	0.002594	-0.089874	-0.036316	-0.007477	-0.080414	0.027924	0.10056	0.014038	-0.014343	-0.00885	0.015411	0.37521	-0.003815	-0.10101	-0.035248	-0.007782	-0.006409
50.052	-0.002136	0.050812	0.029449	-0.000305	-0.005188	0.030365	0.14358	-0.002594	0.089874	0.026855	-0.063477	0.008545	-0.019684	-0.018616	0.22781	-0.001831	-0.083466	-0.013275	-0.15106	-0.080261	0.54352	0.00061	0.033569	-0.006256	0.002136	0.010834	0.56	0.002594	-0.040131	-0.09201	-0.00061	-0.001678
50.053	-0.002289	0.045013	-0.015717	0.026855	0.006256	0.006409	0.14938	-0.00473	0.053864	-0.005798	-0.028839	0.019379	-0.12512	0.17517	0.28015	0.006561	-0.03952	-0.009308	-0.27725	0.010834	0.34546	-0.10452	0.034637	-0.052643	-0.007477	0.013428	0.36331	0.002136	0.023651	-0.14099	-0.002747	-0.001831
50.054	-0.004883	0.011749	-0.09491	0.017395	0.015106	0.007782	0.15915	-0.001068	0.036316	-0.02182	0.060425	0.021973	0.007019	0.30106	0.40222	0.008392	-0.00885	-0.065308	-0.18082	0.037537	-0.020599	-0.095825	0.052338	-0.089417	-0.017242	0.017395	-0.048523	0.003357	-0.063477	-0.16052	-0.002899	0.002747
50.055	-0.002289	0.034332	-0.12528	0.02655	0.019836	0.011749	0.1474	-0.00061	0.02655	0.001373	0.1474	0.034943	0.13367	0.21561	0.15656	0.006561	-0.008392	-0.091248	0.047607	-0.057831	-0.26199	-0.056763	0.050964	-0.042877	0.006714	0.009003	-0.2327	0.000305	-0.18158	-0.16052	-0.001831	-0.002594
50.056	-0.003204	0.07019	-0.089722	0.031128	0.007324	0.02182	0.11231	-0.007782	0.0354	-0.028992	0.34668	-0.01236	0.012817	0.14786	0.41138	0.001373	-0.00946	-0.061188	0.13123	-0.000458	-0.35873	-0.15533	0.061035	-0.023956	0.02182	0.010529	-0.31998	0.000305	-0.20187	-0.17044	-0.002289	-0.009003
50.057	-0.005951	0.07782	-0.046844	0.031586	0.005341	0.035248	0.12299	-0.001526	0.040741	-0.008698	0.46967	0.021515	0.00885	0.13763	-0.003815	0.011902	0.01297	-0.092163	0.058899	0.052948	0.13718	-0.17425	0.088654	-0.004425	0.034027	0.012512	0.35461	0.007629	-0.068665	-0.1619	0	-0.009003
50.058	-0.001831	0.035553	0.054779	-0.005646	0.007019	0.045166	0.12711	-0.001678	0.070953	0.004578	0.38132	0.009155	-0.026245	0.1973	-0.53451	0.009918	-0.005188	-0.10056	0.055542	0.045624	0.2623	-0.10132	0.079651	0.018005	0.027313	0.01358	0.51849	0	0.21225	-0.12009	-0.006866	-0.006714
50.059	0.008087	0.036316	0.042114	-0.01709	0.006866	0.035248	0.15091	0.007324	0.0383	-0.006256	0.16373	0.022278	-0.1004	0.14175	-0.42465	0.005493	-0.006866	-0.055695	0.10056	0.000305	0.17944	0.03067	0.068207	0.094452	0.050964	0.013733	-0.43976	0	0.082092	-0.055542	-0.002136	-0.016479
50.06	0.007019	0.032501	0.095215	-0.009613	0.036621	0.002136	0.12268	-0.000763	0.049591	-0.050964	-0.19043	0.023956	0.13825	0.11231	-0.65613	0.002289	-0.031281	-0.065918	0.089417	-0.044556	0.074463	0.26093	0.025787	0.072327	0.040436	0.013123	-1.2549	0.009155	-0.13275	0.049744	-0.002136	0.002747
50.061	0.010071	0.040588	-0.000763	-0.00946	0.01709	0.031738	0.10513	-0.003357	0.027008	-0.05188	-0.32196	0.019379	0.14114	0.05722	-0.63202	0.003204	-0.039978	-0.070038	0.026703	0.002136	-0.015259	0.26016	0.058746	0.039063	0.028229	0.018463	-0.8815	0.010071	-0.072632	0.14633	-0.002441	-0.003357
50.062	0.002441	0.068054	-0.025482	0.012665	0.003967	0.00351	0.009308	0.005951	0.052032	-0.022583	-0.30563	0.021057	-0.041809	0.02655	-0.56107	-0.010071	-0.028229	-0.045776	0.049896	0.081635	-0.080109	0.21469	0.072327	0.045166	0.027618	0.018768	-0.35492	0.006409	0.2243	0.12665	-0.002747	-0.005798
50.063	0.008698	0.077209	-0.030365	0.00412	0.013885	-0.021667	-0.034332	0.012817	0.055847	-0.00824	-0.24582	0.025482	0.009918	-0.094147	-0.43427	-0.000916	-0.028381	-0.050964	0.039368	-0.013123	-0.028839	0.23697	0.048676	0.006561	0.037689	0.010681	0.033417	-0.001221	0.33554	0.12528	-0.001984	-0.00885
50.064	-0.001984	0.063171	-0.01236	0.002594	0.010834	-0.052185	0.026703	0.009003	0.019531	0.047607	-0.18417	0.017242	-0.07431	-0.2121	-0.33081	-0.005798	-0.013123	-0.018768	-0.021973	-0.0737	0.015411	0.12772	0.088959	-0.027618	0.041199	0.00351	0.13046	0.005798	0.18402	0.2063	-0.005951	-0.013428
50.065	-0.004578	0.025177	-0.048065	0.004272	-0.007782	-0.021667	0.13046	0.006409	-0.025787	0.056	-0.023956	0.024567	-0.12634	0.027313	0.28549	0.009766	-0.018616	-0.087128	-0.10864	-0.051727	-0.028534	0.012054	0.053101	-0.045929	0.031281	-0.005798	0.17899	0.001984	0.005035	0.24597	-0.003815	-0.013733
50.066	-0.011139	0.032349	-0.06546	0.010986	-0.032959	-0.046539	0.13138	0.011597	-0.027466	0.037231	-0.07019	0.015106	-0.028687	0.14969	0.57632	0.000153	-0.012817	-0.097504	-0.15884	0.026245	0.039978	-0.035706	0.091705	-0.023193	0.016785	-0.016022	0.28717	0.001831	0.001678	0.28137	-0.004272	-0.013123
50.067	-0.000763	0.048828	-0.045013	0.018311	-0.048676	-0.020294	0.063629	0.005188	-0.048828	0.048828	-0.15808	0.015106	0.058746	-0.000916	0.61951	0.004425	0.00473	-0.058746	-0.19226	0.11017	0.12054	-0.036316	0.079041	-0.018311	0.00061	-0.010681	0.17349	0.00061	-0.005493	0.22858	-0.001678	-0.016479
50.068	-0.003815	0.040741	-0.039215	0.029602	-0.021667	-0.06073	0.032959	0.00824	-0.050659	0.012817	0.078278	0.019379	0.12283	-0.091858	0.51621	0.016785	-0.002747	-0.10361	-0.15564	0.070496	0.074463	0.024719	0.06485	0.011597	0.021667	0.000916	-0.10834	0.001068	0.083466	0.078583	-0.004578	-0.012817
50.069	-0.001984	0.05722	-0.047913	-0.002899	0.051575	-0.065765	0.090332	-0.006866	-0.028687	-0.003662	0.10117	0.02121	0.093536	-0.087128	0.018616	0.002594	-0.005493	-0.094147	-0.15945	0.041046	0.001373	0.067596	0.075989	-0.024261	0.006256	-0.000153	-0.25223	0.00473	0.07019	0.070343	-0.002136	-0.001678
50.07	-0.006409	0.045776	-0.10788	-0.007324	0.01358	-0.019531	0.13016	-0.005646	0.014191	-0.049896	-0.010071	0.014038	-0.024414	-0.028992	-0.30182	-0.002136	0.003815	-0.057526	-0.000305	-0.049896	-0.015564	0.024414	0.07843	-0.037079	0.017853	0.003204	-0.17273	0.001984	0.095367	0.094757	-0.001221	-0.010681
50.071	-0.00061	0.061951	-0.10696	-0.002136	-0.012817	0.007782	0.12177	-0.013428	0.16586	-0.11337	-0.10193	0.023346	-0.04715	0.031586	-0.40939	-0.009918	-0.009766	-0.094299	0.16342	-0.20264	0.006104	-0.021362	0.080719	0.000153	0.02594	0.003052	-0.064545	0.005341	0.052185	0.093689	-0.003357	-0.011139
50.072	0.005646	0.082855	-0.077972	0.01297	0.009308	0.020142	0.12497	-0.017242	0.14282	-0.12726	-0.1561	0.011292	-0.1239	0.056	-0.24811	0.01709	-0.004883	-0.077362	0.19699	-0.16602	-0.011902	-0.039978	0.069275	-0.010986	0.029144	-0.002289	0.035095	0.014343	-0.063934	0.094757	-0.001984	-0.016479
50.073	0.005951	0.072327	-0.042419	0.023346	0.029449	0.043945	0.13687	-0.010071	0.11414	-0.18799	-0.007172	0.012817	-0.12695	0.12802	0.0354	0.00824	0.006714	-0.080261	0.36896	0.042419	-0.019531	-0.10391	-0.010529	-0.050812	0.023651	0.001221	0.036469	0.015259	-0.058746	0.078278	-0.001526	-0.01297
50.074	0.003052	0.071411	0.027161	0.011444	0.061646	0.00473	0.15289	-0.007782	0.065918	-0.24384	-0.041656	0.010071	-0.07431	0.14816	-0.013733	0.007782	0.032349	-0.052643	0.09201	0.18249	-0.084381	-0.14313	0.063782	-0.095215	0.023804	0.002899	0.049591	0.00946	-0.027008	0.035858	-0.002747	-0.010071
50.075	0.005798	0.10483	0.090942	-0.003357	0.077667	-0.009918	0.16113	-0.003662	0.050049	-0.10681	-0.061188	0.009918	-0.041199	0.081024	0.062561	0.011902	0.046082	-0.093231	-0.20966	0.2211	-0.21668	-0.14938	0.10849	-0.1416	0.010986	0.004425	0.062561	0.005493	0.024567	0.046844	-0.002289	-0.007629
50.076	0.004425	0.069733	0.006409	0.000153	0.054779	-0.011749	0.20493	-0.007324	0.032654	0.13534	0.007172	0.00885	0.034485	-0.046692	0.021057	0.019836	0.022583	-0.10071	-0.11475	0.26016	-0.33814	-0.10056	0.10605	-0.12161	0.024719	-0.001221	0.07019	0.007629	0.14465	0.035858	-0.000305	-0.017242
50.077	0.000305	0.072479	-0.066223	0.01709	0.04303	-0.004578	0.25986	-0.003357	0.017853	0.2829	0.017548	0.009766	0.10498	-0.081024	0.028076	0.007172	0.035858	-0.037384	-0.16632	0.18982	-0.28183	-0.00885	0.088959	-0.1358	0.016022	-0.011902	0.1091	0.007935	0.14969	0.037842	-0.015106	-0.017548
50.078	0.002747	0.084839	0.007324	0.036621	0.041809	-0.02533	0.31616	-0.001984	0.026703	0.39398	0.00061	0.008087	0.006256	-0.033112	0.032349	0.018463	0.032043	-0.044556	0.000916	0.11749	0.21255	0.093079	0.050049	-0.029144	0.03067	-0.007019	0.13702	0.006104	0.087585	0.036621	-0.001984	-0.014954
50.079	-0.000305	0.10819	-0.013428	0.013123	0.00351	-0.002289	0.29388	-0.004272	-0.010529	0.33661	0.018005	0.00473	-0.10971	-0.067749	0.038147	0.012665	0.032654	-0.069885	0.1207	0.058746	0.31601	0.10452	0.04425	0.1001	0.034332	-0.012207	0.16998	0.007324	0.021515	0.039825	0.002289	-0.013275
50.08	-0.000763	0.096588	0.021973	0.015717	0.007019	-0.010223	0.29419	0.002441	-0.037842	0.088959	0.033569	0.014954	-0.098114	-0.11047	0.066376	0.023956	0.022888	-0.14511	0.13809	-0.019836	0.14725	0.032654	0.031891	0.044098	0.02182	-0.007477	0.25009	0.013885	-0.055237	0.019531	-0.002289	-0.012207
50.081	-0.004425	0.054932	-0.066376	0.03952	0.054016	-0.001831	0.30807	0.019684	-0.068359	-0.095367	0.023804	0.020294	0.016327	-0.16678	0.074463	0.035248	0.020752	-0.15518	0.10895	-0.041046	0.1178	-0.020905	0.062408	0.06134	0.030975	-0.001678	0.28702	0.014954	-0.097198	0.035248	-0.001068	-0.024719
50.082	-0.005188	0.04303	-0.1416	0.01709	0.061493	0.028687	0.27481	0.028992	-0.069427	-0.070038	0.022888	0.027771	-0.024261	-0.15915	0.1326	0.030823	-0.012665	-0.13382	-0.12848	-0.037842	0.012665	0.006256	0.08667	0.029297	0.029755	-0.005188	0.21088	0.00885	0.001984	0.013733	-0.003052	-0.00946
